<mxfile host="65bd71144e">
    <diagram id="g_h2cp--sR_Hjbj7nENt" name="Page-1">
        <mxGraphModel dx="2834" dy="2444" grid="1" gridSize="10" guides="1" tooltips="1" connect="1" arrows="1" fold="1" page="1" pageScale="1" pageWidth="850" pageHeight="1100" math="0" shadow="0">
            <root>
                <mxCell id="0"/>
                <mxCell id="1" parent="0"/>
                <mxCell id="2" value="" style="rounded=0;whiteSpace=wrap;html=1;shadow=0;glass=0;sketch=0;fontStyle=2" parent="1" vertex="1">
                    <mxGeometry x="60" y="590" width="1440" height="1370" as="geometry"/>
                </mxCell>
                <mxCell id="3" value="Bank Staff" style="shape=umlActor;verticalLabelPosition=bottom;verticalAlign=top;html=1;outlineConnect=0;rounded=0;shadow=0;glass=0;sketch=0;fontSize=25;fontStyle=0;fontFamily=Tahoma;strokeWidth=2;" parent="1" vertex="1">
                    <mxGeometry x="320" y="1170" width="80" height="180" as="geometry"/>
                </mxCell>
                <mxCell id="4" value="" style="rounded=0;whiteSpace=wrap;html=1;shadow=0;glass=0;sketch=0;" parent="1" vertex="1">
                    <mxGeometry x="660" y="710" width="615" height="1160" as="geometry"/>
                </mxCell>
                <mxCell id="5" value="Register" style="ellipse;whiteSpace=wrap;html=1;rounded=0;shadow=0;glass=0;sketch=0;fontFamily=Tahoma;fontSize=25;" parent="1" vertex="1">
                    <mxGeometry x="868.75" y="750" width="197.5" height="80" as="geometry"/>
                </mxCell>
                <mxCell id="6" value="Validate" style="ellipse;whiteSpace=wrap;html=1;rounded=0;shadow=0;glass=0;sketch=0;fontFamily=Tahoma;fontSize=25;" parent="1" vertex="1">
                    <mxGeometry x="868.75" y="992" width="197.5" height="80" as="geometry"/>
                </mxCell>
                <mxCell id="7" value="Redirect to dashboard" style="ellipse;whiteSpace=wrap;html=1;rounded=0;shadow=0;glass=0;sketch=0;fontFamily=Tahoma;fontSize=25;" parent="1" vertex="1">
                    <mxGeometry x="851.88" y="1120" width="231.25" height="80" as="geometry"/>
                </mxCell>
                <mxCell id="8" value="Login out" style="ellipse;whiteSpace=wrap;html=1;rounded=0;shadow=0;glass=0;sketch=0;fontFamily=Tahoma;fontSize=25;" parent="1" vertex="1">
                    <mxGeometry x="868.75" y="1760" width="197.5" height="80" as="geometry"/>
                </mxCell>
                <mxCell id="9" value="Login" style="ellipse;whiteSpace=wrap;html=1;rounded=0;shadow=0;glass=0;sketch=0;fontFamily=Tahoma;fontSize=25;" parent="1" vertex="1">
                    <mxGeometry x="868.75" y="870" width="197.5" height="80" as="geometry"/>
                </mxCell>
                <mxCell id="10" value="Update/Modify Data" style="ellipse;whiteSpace=wrap;html=1;rounded=0;shadow=0;glass=0;sketch=0;fontFamily=Tahoma;fontSize=25;" parent="1" vertex="1">
                    <mxGeometry x="837.5" y="1240" width="260.63" height="100" as="geometry"/>
                </mxCell>
                <mxCell id="11" value="&amp;nbsp;Member/Group&lt;br&gt;(view only)" style="ellipse;whiteSpace=wrap;html=1;rounded=0;shadow=0;glass=0;sketch=0;fontFamily=Tahoma;fontSize=25;" parent="1" vertex="1">
                    <mxGeometry x="836.88" y="1380" width="261.25" height="110" as="geometry"/>
                </mxCell>
                <mxCell id="12" value="Loan managment" style="ellipse;whiteSpace=wrap;html=1;rounded=0;shadow=0;glass=0;sketch=0;fontFamily=Tahoma;fontSize=25;" parent="1" vertex="1">
                    <mxGeometry x="854.38" y="1645" width="226.25" height="80" as="geometry"/>
                </mxCell>
                <mxCell id="13" value="Active/Inactive&lt;br&gt;(Can see)" style="ellipse;whiteSpace=wrap;html=1;rounded=0;shadow=0;glass=0;sketch=0;fontFamily=Tahoma;fontSize=25;" parent="1" vertex="1">
                    <mxGeometry x="860" y="1520" width="206.25" height="91" as="geometry"/>
                </mxCell>
                <mxCell id="14" value="" style="endArrow=classic;html=1;fontFamily=Tahoma;fontSize=25;entryX=0;entryY=0.5;entryDx=0;entryDy=0;exitX=0.5;exitY=0.5;exitDx=0;exitDy=0;exitPerimeter=0;" parent="1" source="3" target="5" edge="1">
                    <mxGeometry width="50" height="50" relative="1" as="geometry">
                        <mxPoint x="740" y="1330" as="sourcePoint"/>
                        <mxPoint x="790" y="1280" as="targetPoint"/>
                    </mxGeometry>
                </mxCell>
                <mxCell id="15" value="" style="endArrow=classic;html=1;fontFamily=Tahoma;fontSize=25;entryX=0;entryY=0.5;entryDx=0;entryDy=0;exitX=0.5;exitY=0.5;exitDx=0;exitDy=0;exitPerimeter=0;" parent="1" source="3" target="9" edge="1">
                    <mxGeometry width="50" height="50" relative="1" as="geometry">
                        <mxPoint x="860" y="1440" as="sourcePoint"/>
                        <mxPoint x="910" y="1390" as="targetPoint"/>
                    </mxGeometry>
                </mxCell>
                <mxCell id="16" value="" style="endArrow=classic;html=1;fontFamily=Tahoma;fontSize=25;exitX=0.5;exitY=0.5;exitDx=0;exitDy=0;exitPerimeter=0;entryX=0;entryY=0.5;entryDx=0;entryDy=0;" parent="1" source="3" target="6" edge="1">
                    <mxGeometry width="50" height="50" relative="1" as="geometry">
                        <mxPoint x="860" y="1440" as="sourcePoint"/>
                        <mxPoint x="910" y="1390" as="targetPoint"/>
                    </mxGeometry>
                </mxCell>
                <mxCell id="17" value="" style="endArrow=classic;html=1;fontFamily=Tahoma;fontSize=25;exitX=0.5;exitY=0.5;exitDx=0;exitDy=0;exitPerimeter=0;entryX=0;entryY=0.5;entryDx=0;entryDy=0;" parent="1" source="3" target="7" edge="1">
                    <mxGeometry width="50" height="50" relative="1" as="geometry">
                        <mxPoint x="860" y="1440" as="sourcePoint"/>
                        <mxPoint x="910" y="1390" as="targetPoint"/>
                    </mxGeometry>
                </mxCell>
                <mxCell id="18" value="" style="endArrow=classic;html=1;fontFamily=Tahoma;fontSize=25;exitX=0.5;exitY=0.5;exitDx=0;exitDy=0;exitPerimeter=0;entryX=0;entryY=0.5;entryDx=0;entryDy=0;" parent="1" source="3" target="10" edge="1">
                    <mxGeometry width="50" height="50" relative="1" as="geometry">
                        <mxPoint x="860" y="1440" as="sourcePoint"/>
                        <mxPoint x="910" y="1390" as="targetPoint"/>
                    </mxGeometry>
                </mxCell>
                <mxCell id="19" value="" style="endArrow=classic;html=1;fontFamily=Tahoma;fontSize=25;exitX=0.5;exitY=0.5;exitDx=0;exitDy=0;exitPerimeter=0;entryX=0;entryY=0.5;entryDx=0;entryDy=0;" parent="1" source="3" target="11" edge="1">
                    <mxGeometry width="50" height="50" relative="1" as="geometry">
                        <mxPoint x="860" y="1440" as="sourcePoint"/>
                        <mxPoint x="910" y="1390" as="targetPoint"/>
                    </mxGeometry>
                </mxCell>
                <mxCell id="20" value="" style="endArrow=classic;html=1;fontFamily=Tahoma;fontSize=25;exitX=0.5;exitY=0.5;exitDx=0;exitDy=0;exitPerimeter=0;entryX=0;entryY=0.5;entryDx=0;entryDy=0;" parent="1" source="3" target="13" edge="1">
                    <mxGeometry width="50" height="50" relative="1" as="geometry">
                        <mxPoint x="860" y="1440" as="sourcePoint"/>
                        <mxPoint x="910" y="1390" as="targetPoint"/>
                    </mxGeometry>
                </mxCell>
                <mxCell id="21" value="" style="endArrow=classic;html=1;fontFamily=Tahoma;fontSize=25;exitX=0.5;exitY=0.5;exitDx=0;exitDy=0;exitPerimeter=0;entryX=0;entryY=0.5;entryDx=0;entryDy=0;" parent="1" source="3" target="12" edge="1">
                    <mxGeometry width="50" height="50" relative="1" as="geometry">
                        <mxPoint x="860" y="1440" as="sourcePoint"/>
                        <mxPoint x="910" y="1390" as="targetPoint"/>
                    </mxGeometry>
                </mxCell>
                <mxCell id="22" value="" style="endArrow=classic;html=1;fontFamily=Tahoma;fontSize=25;exitX=0.5;exitY=0.5;exitDx=0;exitDy=0;exitPerimeter=0;entryX=0;entryY=0.5;entryDx=0;entryDy=0;" parent="1" source="3" target="8" edge="1">
                    <mxGeometry width="50" height="50" relative="1" as="geometry">
                        <mxPoint x="860" y="1440" as="sourcePoint"/>
                        <mxPoint x="910" y="1390" as="targetPoint"/>
                    </mxGeometry>
                </mxCell>
                <mxCell id="23" value="" style="shape=stencil(fZbdcgIhDIWfZm8zQAg/17Z9j85U606tdqz9e/tmZ0c0uJ47xP0I5JwEBl59bp8/1kNwn6fj4W39M76ctgM/DCGM++36OJ50NPDjwKvN4bh+PR6+9i/z74/n6ctp9H74nlb4nbmSKZeJCu5vngmZ6jzzNAO7cX8FVKEsBuBKrgKg9oAE8gkCbLeUhEoEQKSUDZDLeWYRKIl8MEDRmHwfyBrBG6Amyu4+kDxxMoB3jhwgYu7TVAsVkFcWCs4CTBEoF4RctKeOxHIf8IXYpikHikAIf+MNUW94AGSSaoAoFIE3AlOyeWU+p2E5S9yfQZcQILVuQOwZdJNoS9Ls3wA5u2XZTIHECqeJ9kDpSaauRiNVcAY1QhdBzeLBli5WazpkSsBLV25uRaqWRyFawTQzRRIQYirJzq5atkBqLfouwqUxLBepthWb10vrWZY6UOAeyKCCtDV625mm9gmUC4Wc3VLJMMIE1BsA2FW9JraVlQB7n3c9oMKhCLEvIM1zBPZ25/umNQ1tVEC2G+fFCC8g398O2hNQuQlVu752DBfA+q0ptnqO5JFmeuIuo9DY7KjY71UxdJV4EntifPWorW++R/dC4t7V3DlIB5cHx2bc7eb3yvX//QNFp+bHDT/+Aw==);lineShape=1;" vertex="1" parent="1">
                    <mxGeometry x="-131.72813831955023" y="1037.9013963184516" width="18.690159088461314" height="18.660944865430793" as="geometry"/>
                </mxCell>
            </root>
        </mxGraphModel>
    </diagram>
</mxfile>